<svg xmlns="http://www.w3.org/2000/svg" viewBox="0 0 120 30">
  <path d="M14 6.8v16.4c0 3.2 1.6 4.8 4.8 4.8h1.6v1.6H4.8v-1.6h1.6c3.2 0 4.8-1.6 4.8-4.8V6.8c0-3.2-1.6-4.8-4.8-4.8H4.8V0h16v1.6h-1.6c-3.2.4-5.2 2-5.2 5.2z" fill="#1890ff"/>
  <path d="M27.2 6.8v16.4c0 3.2 1.6 4.8 4.8 4.8h1.6v1.6H18v-1.6h1.6c3.2 0 4.8-1.6 4.8-4.8V6.8c0-3.2-1.6-4.8-4.8-4.8H18V0h16v1.6h-1.6c-3.6.4-5.2 2-5.2 5.2zM56.8 1.6c6 0 10.8 2.4 14 6.8 3.2 4 4.8 8.8 4.8 14.4v.8H46.4c.4 3.2 2 5.6 4.4 7.2 2.4 1.6 5.2 2.4 8.8 2.4 4 0 7.6-1.2 10.8-3.6l1.2 1.6c-1.6 1.2-3.6 2.4-6 3.2-2.4.8-4.8 1.2-7.6 1.2-6 0-10.8-1.6-14-5.2-3.2-3.2-5.2-7.6-5.2-12.8 0-3.6.8-6.8 2.4-9.6 1.6-2.8 3.6-4.8 6.4-6.4 2.8-1.2 6-2 9.2-2zm12.8 20c-.4-3.2-2-6-4.4-8-2.4-2-5.2-3.2-8.8-3.2-3.2 0-6.4 1.2-8.4 3.2-2.4 2-3.6 4.8-4 8h25.6zM109.6 10.8l1.2 1.6c-3.2 2.8-5.2 6.4-5.2 10.4 0 4 2 7.6 5.2 10.4l-1.2 1.6c-1.6-1.2-3.2-2.8-4.4-4.8-1.2-2-1.6-4.4-1.6-6.8 0-2.4.4-4.8 1.6-6.8 1.2-2.4 2.8-4 4.4-5.6zM98 0c1.6 0 3.2.4 4.4 1.2 1.2.8 2.4 2 3.2 3.2.8 1.6 1.2 3.2 1.2 4.8 0 2.8-1.2 5.2-3.2 7.2-2 2-4.4 2.8-7.2 2.8H90v6.4c0 3.2 1.6 4.8 4.8 4.8h1.6v1.6H80.8v-1.6h1.6c3.2 0 4.8-1.6 4.8-4.8V6.8c0-3.2-1.6-4.8-4.8-4.8h-1.6V0H98zm-8 17.6h5.6c2 0 3.6-.8 4.8-2 1.2-1.2 2-2.8 2-4.8s-.8-3.6-2-4.8c-1.2-1.2-2.8-2-4.8-2H90v13.6z" fill="#1890ff"/>
</svg>
